<?xml version="1.0" encoding="UTF-8"?><svg xmlns="http://www.w3.org/2000/svg" viewBox="0 0 665.97 477.69"><g id="a"/><g id="b"><g id="c"><g><path d="M359.34,19.75c0-16.93-19.93-25.98-32.68-14.84l-141.79,123.92v-.08H19.71c-10.88,0-19.71,8.82-19.71,19.71v180.79c0,10.88,8.82,19.71,19.71,19.71H184.87v-.08l141.79,123.92c12.75,11.14,32.68,2.09,32.68-14.84V19.75Z"/><path d="M449.83,313.08c-5.72,0-11.43-2.18-15.79-6.54-8.72-8.72-8.72-22.86,0-31.58,19.91-19.91,19.91-52.3,0-72.21-8.72-8.72-8.72-22.86,0-31.59,8.72-8.72,22.86-8.72,31.58,0,37.33,37.32,37.33,98.06,0,135.38-4.36,4.36-10.08,6.54-15.79,6.54Z"/><path d="M514.49,364.97c-5.72,0-11.43-2.18-15.79-6.54-8.72-8.72-8.72-22.86,0-31.58,48.52-48.52,48.52-127.48,0-176-8.72-8.72-8.72-22.86,0-31.59,8.72-8.72,22.86-8.72,31.58,0,65.94,65.94,65.94,173.23,0,239.17-4.36,4.36-10.08,6.54-15.79,6.54Z"/><path d="M579.14,416.87c-5.72,0-11.43-2.18-15.79-6.54-8.72-8.72-8.72-22.86,0-31.58,37.37-37.37,57.95-87.05,57.95-139.9s-20.58-102.53-57.95-139.9c-8.72-8.72-8.72-22.86,0-31.59,8.72-8.72,22.86-8.72,31.58,0,45.81,45.8,71.03,106.71,71.03,171.48s-25.23,125.68-71.03,171.48c-4.36,4.36-10.08,6.54-15.79,6.54Z" fill="currentColor"/></g></g></g></svg>