<?xml version="1.0" encoding="UTF-8"?><svg xmlns="http://www.w3.org/2000/svg" viewBox="0 0 493.61 477.69"><g id="a"/><g id="b"><g id="c"><g><path d="M359.34,19.75c0-16.93-19.93-25.98-32.68-14.84l-141.79,123.92v-.08H19.71c-10.88,0-19.71,8.82-19.71,19.71v180.79c0,10.88,8.82,19.71,19.71,19.71H184.87v-.08l141.79,123.92c12.75,11.14,32.68,2.09,32.68-14.84V19.75Z"/><path d="M449.83,313.08c-5.72,0-11.43-2.18-15.79-6.54-8.72-8.72-8.72-22.86,0-31.58,19.91-19.91,19.91-52.3,0-72.21-8.72-8.72-8.72-22.86,0-31.59,8.72-8.72,22.86-8.72,31.59,0,37.32,37.32,37.32,98.06,0,135.38-4.36,4.36-10.08,6.54-15.79,6.54Z" fill="currentColor"/></g></g></g></svg>